<svg xmlns="http://www.w3.org/2000/svg" viewBox="0 0 90 90">
<rect width="90" height="90" rx="18" fill="#222831"/>
<rect x="0" y="0" width="10" height="10" fill="#f0f3f7"/>
<rect x="10" y="0" width="10" height="10" fill="#f0f3f7"/>
<rect x="20" y="0" width="10" height="10" fill="#f0f3f7"/>
<rect x="40" y="0" width="10" height="10" fill="#f0f3f7"/>
<rect x="60" y="0" width="10" height="10" fill="#f0f3f7"/>
<rect x="70" y="0" width="10" height="10" fill="#f0f3f7"/>
<rect x="80" y="0" width="10" height="10" fill="#f0f3f7"/>
<rect x="0" y="10" width="10" height="10" fill="#f0f3f7"/>
<rect x="20" y="10" width="10" height="10" fill="#f0f3f7"/>
<rect x="60" y="10" width="10" height="10" fill="#f0f3f7"/>
<rect x="80" y="10" width="10" height="10" fill="#f0f3f7"/>
<rect x="0" y="20" width="10" height="10" fill="#f0f3f7"/>
<rect x="10" y="20" width="10" height="10" fill="#f0f3f7"/>
<rect x="20" y="20" width="10" height="10" fill="#f0f3f7"/>
<rect x="40" y="20" width="10" height="10" fill="#f0f3f7"/>
<rect x="60" y="20" width="10" height="10" fill="#f0f3f7"/>
<rect x="70" y="20" width="10" height="10" fill="#f0f3f7"/>
<rect x="80" y="20" width="10" height="10" fill="#f0f3f7"/>
<rect x="0" y="40" width="10" height="10" fill="#f0f3f7"/>
<rect x="20" y="40" width="10" height="10" fill="#f0f3f7"/>
<rect x="40" y="40" width="10" height="10" fill="#f0f3f7"/>
<rect x="60" y="40" width="10" height="10" fill="#f0f3f7"/>
<rect x="50" y="50" width="10" height="10" fill="#f0f3f7"/>
<rect x="70" y="50" width="10" height="10" fill="#f0f3f7"/>
<rect x="0" y="60" width="10" height="10" fill="#f0f3f7"/>
<rect x="10" y="60" width="10" height="10" fill="#f0f3f7"/>
<rect x="20" y="60" width="10" height="10" fill="#f0f3f7"/>
<rect x="40" y="60" width="10" height="10" fill="#f0f3f7"/>
<rect x="60" y="60" width="10" height="10" fill="#f0f3f7"/>
<rect x="0" y="70" width="10" height="10" fill="#f0f3f7"/>
<rect x="20" y="70" width="10" height="10" fill="#f0f3f7"/>
<rect x="50" y="70" width="10" height="10" fill="#f0f3f7"/>
<rect x="80" y="70" width="10" height="10" fill="#f0f3f7"/>
<rect x="0" y="80" width="10" height="10" fill="#f0f3f7"/>
<rect x="10" y="80" width="10" height="10" fill="#f0f3f7"/>
<rect x="20" y="80" width="10" height="10" fill="#f0f3f7"/>
<rect x="40" y="80" width="10" height="10" fill="#f0f3f7"/>
<rect x="70" y="80" width="10" height="10" fill="#f0f3f7"/>
</svg>